<svg xmlns="http://www.w3.org/2000/svg" xmlns:xlink="http://www.w3.org/1999/xlink" width="238" height="238" viewBox="0 0 238 238"><defs><style>.a{fill:#392f57;}.b{fill:#4d3c81;}.c{filter:url(#a);}</style><filter id="a" x="0" y="0" width="238" height="238" filterUnits="userSpaceOnUse"><feOffset dy="3" input="SourceAlpha"/><feGaussianBlur stdDeviation="8.5" result="b"/><feFlood flood-opacity="0.478"/><feComposite operator="in" in2="b"/><feComposite in="SourceGraphic"/></filter></defs><g transform="translate(-934.5 -75.5)"><g class="c" transform="matrix(1, 0, 0, 1, 934.5, 75.5)"><circle class="a" cx="93.5" cy="93.5" r="93.5" transform="translate(25.5 22.5)"/></g><path class="b" d="M93.5.563a93.5,93.5,0,1,0,93.5,93.5A93.484,93.484,0,0,0,93.5.563Zm0,36.194A33.177,33.177,0,1,1,60.323,69.933,33.178,33.178,0,0,1,93.5,36.756Zm0,129.694a72.247,72.247,0,0,1-55.233-25.712A42.035,42.035,0,0,1,75.4,118.192a9.225,9.225,0,0,1,2.677.415,49.917,49.917,0,0,0,15.42,2.6,49.728,49.728,0,0,0,15.42-2.6,9.225,9.225,0,0,1,2.677-.415,42.035,42.035,0,0,1,37.136,22.546A72.246,72.246,0,0,1,93.5,166.45Z" transform="translate(959.787 97.5)"/></g></svg>