<svg xmlns="http://www.w3.org/2000/svg" xmlns:xlink="http://www.w3.org/1999/xlink" width="139.55" height="147.32" viewBox="0 0 139.55 147.32">
  <defs>
    <style>
      .cls-1 {
        fill: #9e90f8;
      }

      .cls-2 {
        fill: #f7f8ff;
      }

      .cls-3 {
        fill: #88efb4;
      }

      .cls-4 {
        clip-path: url(#clip-path);
      }

      .cls-5 {
        fill: #ab9efb;
      }

      .cls-6 {
        fill: #ebedfd;
      }

      .cls-7 {
        clip-path: url(#clip-path-2);
      }

      .cls-8 {
        fill: #f6f7ff;
      }

      .cls-9 {
        fill: #fff;
      }

      .cls-10, .cls-11, .cls-12 {
        fill: none;
        stroke-linecap: round;
        stroke-width: 4px;
      }

      .cls-10 {
        stroke: #d9e0ea;
      }

      .cls-11 {
        stroke: #edf0f5;
      }

      .cls-12 {
        stroke: #f1f3f7;
      }

      .cls-13 {
        fill: #6eda9c;
      }

      .cls-14 {
        clip-path: url(#clip-path-3);
      }

      .cls-15 {
        fill: #6eeca4;
      }

      .cls-16 {
        filter: url(#Rectangle_37);
      }
    </style>
    <clipPath id="clip-path">
      <path id="Path_21" data-name="Path 21" class="cls-1" d="M3206.62,485.852s-16.562,9.957,4.056,11.466,7.436,5.13,7.436,5.13-5.408,4.224,6.76,2.414,7.436-15.691,7.436-15.691l-21.632-10.561Z" transform="translate(-3200.327 -478.61)"/>
    </clipPath>
    <clipPath id="clip-path-2">
      <path id="Path_18" data-name="Path 18" class="cls-2" d="M3194.564,467.687s-34.543,55.637-13.2,85.757-56.474,10.04-56.474,10.04a71.312,71.312,0,0,0-16.071-.266c-5.913.618,3.5,10.089-.244,14.41-3.075,3.547-.369,3.837,2.8,12.384,2.406,6.493,2.235-4.573,11.4,6.43,4,4.806,7.441,0,7.441,0s28.357,6.492,56,6.492h54.34V467.824Z" transform="translate(-2872)"/>
    </clipPath>
    <filter id="Rectangle_37" x="16.996" y="43.629" width="107" height="77" filterUnits="userSpaceOnUse">
      <feOffset dy="3" input="SourceAlpha"/>
      <feGaussianBlur stdDeviation="3" result="blur"/>
      <feFlood flood-opacity="0.161"/>
      <feComposite operator="in" in2="blur"/>
      <feComposite in="SourceGraphic"/>
    </filter>
    <clipPath id="clip-path-3">
      <path id="Path_15" data-name="Path 15" class="cls-3" d="M3344.85,562.771s15.21,6.084,10.14,13.182,11.492,1.014,8.788,11.154-1.352,21.632,7.1,16.562-34.476,33.124-38.194,21.97,3.042-74.36,3.042-74.36Z" transform="translate(-2872)"/>
    </clipPath>
  </defs>
  <g id="icon-regist-succes" transform="translate(-11.181 -40.955)">
    <g id="Group_56" data-name="Group 56" transform="translate(-276.423 -384.914) rotate(-6.024)">
      <path id="Path_19" data-name="Path 19" class="cls-1" d="M3212.53,490.1c18.565-4.94,23.564,9.1,11.663,14.56s-37.051-2.018-37.369-5.2S3193.97,495.042,3212.53,490.1Z" transform="translate(-2878 -2.209)"/>
      <g id="Mask_Group_3" data-name="Mask Group 3" class="cls-4" transform="translate(324.28 478.61)">
        <path id="Path_20" data-name="Path 20" class="cls-5" d="M3214.91,489.99c20.28-4.41,25.74,8.124,12.74,13s-40.473-1.8-40.82-4.642S3194.63,494.4,3214.91,489.99Z" transform="translate(-3206.327 -478.839)"/>
      </g>
    </g>
    <path id="Subtraction_1" data-name="Subtraction 1" class="cls-6" d="M-2780.51,156.933a69.559,69.559,0,0,1-27.247-5.5,69.767,69.767,0,0,1-22.25-15,69.775,69.775,0,0,1-15-22.25,69.57,69.57,0,0,1-5.5-27.247,70.293,70.293,0,0,1,2.053-16.9,69.632,69.632,0,0,1,5.831-15.407l.319.464a.034.034,0,0,1,0-.014,46.059,46.059,0,0,1,2.789-5.826,70.439,70.439,0,0,1,9.446-11.758,70.444,70.444,0,0,1,11.734-9.474,69.872,69.872,0,0,1,13.623-6.792,69.7,69.7,0,0,1,15.114-3.712c1.871-.141,3.8-.213,5.73-.213.1,0,9.99.075,13,6.523,1.216,2.6,1.127,5.906-.264,9.812-1.661,4.664-5.207,10.256-10.538,16.619a8.968,8.968,0,0,1-1.234,1.408c-1.035,1.038-2.1,2.111-1.69,3.28.523,1.477,3.43,2.833,8.887,4.148,6.749,1.626,17.3,3.191,32.266,4.786,7.181.765,13.215,2.493,17.933,5.134a24.963,24.963,0,0,1,9.694,9.363c3.4,5.937,4.365,13.574,2.861,22.7a80.66,80.66,0,0,1-6.087,19.372,70.337,70.337,0,0,1-25.245,26.394,69.646,69.646,0,0,1-17.1,7.447,70.131,70.131,0,0,1-19.125,2.643Z" transform="translate(2861.688 23.651)"/>
    <g id="Mask_Group_2" data-name="Mask Group 2" class="cls-7" transform="translate(-217.823 -420.416)">
      <path id="Subtraction_2" data-name="Subtraction 2" class="cls-8" d="M-2780.51,156.933a69.559,69.559,0,0,1-27.247-5.5,69.767,69.767,0,0,1-22.25-15,69.775,69.775,0,0,1-15-22.25,69.57,69.57,0,0,1-5.5-27.247,70.293,70.293,0,0,1,2.053-16.9,69.632,69.632,0,0,1,5.831-15.407l.319.464a.034.034,0,0,1,0-.014,46.059,46.059,0,0,1,2.789-5.826,70.439,70.439,0,0,1,9.446-11.758,70.444,70.444,0,0,1,11.734-9.474,69.872,69.872,0,0,1,13.623-6.792,69.7,69.7,0,0,1,15.114-3.712c1.871-.141,3.8-.213,5.73-.213.1,0,9.99.075,13,6.523,1.216,2.6,1.127,5.906-.264,9.812-1.661,4.664-5.207,10.256-10.538,16.619a8.968,8.968,0,0,1-1.234,1.408c-1.035,1.038-2.1,2.111-1.69,3.28.523,1.477,3.43,2.833,8.887,4.148,6.749,1.626,17.3,3.191,32.266,4.786,7.181.765,13.215,2.493,17.933,5.134a24.963,24.963,0,0,1,9.694,9.363c3.4,5.937,4.365,13.574,2.861,22.7a80.66,80.66,0,0,1-6.087,19.372,70.337,70.337,0,0,1-25.245,26.394,69.646,69.646,0,0,1-17.1,7.447,70.131,70.131,0,0,1-19.125,2.643Z" transform="translate(3079.511 444.067)"/>
    </g>
    <g id="Group_53" data-name="Group 53" transform="translate(-190.823 -431.416)">
      <g class="cls-16" transform="matrix(1, 0, 0, 1, 202, 472.37)">
        <rect id="Rectangle_37-2" data-name="Rectangle 37" class="cls-9" width="89" height="59" rx="5" transform="translate(26 49.63)"/>
      </g>
      <path id="Icon_awesome-user" data-name="Icon awesome-user" class="cls-1" d="M15.572,17.8a8.9,8.9,0,1,0-8.9-8.9,8.9,8.9,0,0,0,8.9,8.9ZM21.8,20.021H20.639a12.1,12.1,0,0,1-10.135,0H9.343A9.345,9.345,0,0,0,0,29.361v2.894a3.338,3.338,0,0,0,3.337,3.337h24.47a3.338,3.338,0,0,0,3.337-3.337V29.363A9.345,9.345,0,0,0,21.8,20.021Z" transform="translate(241.357 532.451)"/>
      <path id="Path_12" data-name="Path 12" class="cls-10" d="M3164.55,538.882h22.672" transform="translate(-2887.227 4.618)"/>
      <path id="Path_13" data-name="Path 13" class="cls-11" d="M3164.55,538.882h21.328" transform="translate(-2887.227 11.618)"/>
      <path id="Path_14" data-name="Path 14" class="cls-12" d="M3164.55,538.882h19.115" transform="translate(-2887.227 18.618)"/>
    </g>
    <g id="Group_55" data-name="Group 55" transform="translate(-217.823 -411.416)">
      <ellipse id="Ellipse_29" data-name="Ellipse 29" class="cls-9" cx="13.5" cy="11.5" rx="13.5" ry="11.5" transform="translate(322 544)"/>
      <g id="Group_54" data-name="Group 54" transform="translate(-148 -28)">
        <path id="Icon_awesome-check-circle" data-name="Icon awesome-check-circle" class="cls-13" d="M35.438,18A17.438,17.438,0,1,1,18,.563,17.438,17.438,0,0,1,35.438,18ZM15.983,27.233,28.921,14.3a1.125,1.125,0,0,0,0-1.591L27.33,11.114a1.125,1.125,0,0,0-1.591,0L15.188,21.665l-4.926-4.926a1.125,1.125,0,0,0-1.591,0l-1.592,1.59a1.125,1.125,0,0,0,0,1.591l7.313,7.313a1.125,1.125,0,0,0,1.591,0Z" transform="translate(465.925 566)"/>
        <g id="Mask_Group_1" data-name="Mask Group 1" class="cls-14">
          <path id="Icon_awesome-check-circle-2" data-name="Icon awesome-check-circle" class="cls-15" d="M35.438,18A17.438,17.438,0,1,1,18,.563,17.438,17.438,0,0,1,35.438,18ZM15.983,27.233,28.921,14.3a1.125,1.125,0,0,0,0-1.591L27.33,11.114a1.125,1.125,0,0,0-1.591,0L15.188,21.665l-4.926-4.926a1.125,1.125,0,0,0-1.591,0l-1.592,1.59a1.125,1.125,0,0,0,0,1.591l7.313,7.313a1.125,1.125,0,0,0,1.591,0Z" transform="translate(465.925 566)"/>
        </g>
      </g>
    </g>
  </g>
</svg>
