<svg id="icon-data-not-found" xmlns="http://www.w3.org/2000/svg" xmlns:xlink="http://www.w3.org/1999/xlink" width="166.157" height="111.164" viewBox="0 0 166.157 111.164">
  <defs>
    <style>
      .cls-1 {
        fill: #e9ebfc;
      }

      .cls-2 {
        fill: #e8eafc;
      }

      .cls-12, .cls-23, .cls-25, .cls-3, .cls-8 {
        fill: none;
      }

      .cls-3 {
        stroke: #707070;
      }

      .cls-4 {
        fill: #f7f8ff;
      }

      .cls-5 {
        clip-path: url(#clip-path);
      }

      .cls-6 {
        clip-path: url(#clip-path-2);
      }

      .cls-7 {
        fill: #88efb4;
      }

      .cls-8 {
        stroke: #fff;
        stroke-width: 0.5px;
      }

      .cls-9 {
        fill: #7c89f1;
      }

      .cls-10 {
        clip-path: url(#clip-path-3);
      }

      .cls-11 {
        fill: #8490f1;
      }

      .cls-12 {
        stroke: #a7aed7;
        stroke-width: 3px;
      }

      .cls-13 {
        fill: #a7aed7;
      }

      .cls-14 {
        fill: #f5f6f9;
      }

      .cls-15 {
        fill: #cfd8e6;
      }

      .cls-16 {
        fill: #d0d9e6;
      }

      .cls-16, .cls-21 {
        font-size: 3px;
        font-family: Roboto-Medium, Roboto;
        font-weight: 500;
      }

      .cls-17 {
        fill: #b9c0c9;
      }

      .cls-18 {
        fill: #c3c7dc;
      }

      .cls-19 {
        fill: #fff;
      }

      .cls-20 {
        fill: #7b88f1;
      }

      .cls-21 {
        fill: #b2bcca;
      }

      .cls-22 {
        fill: #f2f2f2;
      }

      .cls-23 {
        stroke: #cfd8e6;
        stroke-linecap: round;
      }

      .cls-24 {
        stroke: none;
      }
    </style>
    <clipPath id="clip-path">
      <path id="Path_40" data-name="Path 40" class="cls-1" d="M4098.109,426.45l-18.267,82.035h46.83l6.311-69.082Z" transform="translate(-2776 10)"/>
    </clipPath>
    <clipPath id="clip-path-2">
      <path id="Path_41" data-name="Path 41" class="cls-2" d="M4011.756,405.41,4037.33,514.8l-38.195-6.643s-13.729-27.145-14.145-50.477,8.332-32.638,12.484-42.851A14.717,14.717,0,0,1,4011.756,405.41Z" transform="translate(-2776 10)"/>
    </clipPath>
    <clipPath id="clip-path-3">
      <path id="Path_47" data-name="Path 47" class="cls-3" d="M1300,420.726s17.676,4.651,25.816,13.954,9.535-20.35,9.535-20.35l-33.956-.7Z"/>
    </clipPath>
  </defs>
  <path id="Path_37" data-name="Path 37" class="cls-4" d="M4078.514,423.793s-40.851-31.22-67.754-12.289-21.92,60.447-21.92,60.447,5.978,41.848,33.545,39.191,73.732-3.653,73.732-3.653,27.234-4.65,31.22-27.566-10.96-31.884-10.96-31.884Z" transform="translate(-3984.977 -403.633)"/>
  <g id="Mask_Group_8" data-name="Mask Group 8" class="cls-5" transform="translate(-1208.977 -413.633)">
    <path id="Path_38" data-name="Path 38" class="cls-1" d="M4078.514,423.793s-40.851-31.22-67.754-12.289-21.92,60.447-21.92,60.447,5.978,41.848,33.545,39.191,73.732-3.653,73.732-3.653,27.234-4.65,31.22-27.566-10.96-31.884-10.96-31.884Z" transform="translate(-2776 10)"/>
  </g>
  <g id="Mask_Group_7" data-name="Mask Group 7" class="cls-6" transform="translate(-1208.977 -413.633)">
    <path id="Path_39" data-name="Path 39" class="cls-1" d="M4078.514,423.793s-40.851-31.22-67.754-12.289-21.92,60.447-21.92,60.447,5.978,41.848,33.545,39.191,73.732-3.653,73.732-3.653,27.234-4.65,31.22-27.566-10.96-31.884-10.96-31.884Z" transform="translate(-2776 10)"/>
  </g>
  <g id="leave" transform="translate(-1208.977 -413.633)">
    <path id="Path_42" data-name="Path 42" class="cls-7" d="M4124.063,441.621c.449,1.2,1.521,44.189,1.521,44.189s5.009-27.014,16.906-29.072,8.05-8.23,8.05-8.23-2.146-6.262-9.75-.895-.447-16.459-.447-16.459,1.79-8.14-5.635-7.872-7.335,7.872-7.335,7.872-.268,9.3-5.009,5.457-6.121,1.045-6.121,1.045-1.6,4.385,2.913,4.165S4123.615,440.418,4124.063,441.621Z" transform="translate(-2776 10)"/>
    <g id="Group_65" data-name="Group 65">
      <path id="Path_43" data-name="Path 43" class="cls-8" d="M4136.64,424.108s-8.868,11.421-10.682,57.529" transform="translate(-2776 10)"/>
      <path id="Path_44" data-name="Path 44" class="cls-8" d="M4127.923,457.751s14.059-8.163,22.524-6.349" transform="translate(-2776 10)"/>
    </g>
  </g>
  <g id="batch" transform="translate(-1208.977 -413.633)">
    <path id="Path_45" data-name="Path 45" class="cls-9" d="M1307.1,415.41h20s7.093.664,5.117,7.292-6.279,11.4-11.4,11.745a28.543,28.543,0,0,1-9.884-1.279s-9.768-5.931-8.954-13.606C1302.677,415.493,1307.1,415.41,1307.1,415.41Z"/>
    <g id="Mask_Group_9" data-name="Mask Group 9" class="cls-10">
      <path id="Path_46" data-name="Path 46" class="cls-11" d="M1307.1,415.41h20s7.093.664,5.117,7.292-6.279,11.4-11.4,11.745a28.543,28.543,0,0,1-9.884-1.279s-9.768-5.931-8.954-13.606C1302.677,415.493,1307.1,415.41,1307.1,415.41Z"/>
    </g>
  </g>
  <g id="Group_67" data-name="Group 67" transform="translate(-1208.977 -413.633)">
    <g id="Rectangle_67" data-name="Rectangle 67" class="cls-12" transform="translate(1243 439)">
      <rect class="cls-24" width="60" height="83" rx="6"/>
      <rect class="cls-25" x="1.5" y="1.5" width="57" height="80" rx="4.5"/>
    </g>
    <path id="Rectangle_68" data-name="Rectangle 68" class="cls-13" d="M0,0H28a0,0,0,0,1,0,0V0a6,6,0,0,1-6,6H6A6,6,0,0,1,0,0V0A0,0,0,0,1,0,0Z" transform="translate(1259 441)"/>
  </g>
  <g id="Group_66" data-name="Group 66" transform="translate(-1208.977 -413.633)">
    <path id="Rectangle_69" data-name="Rectangle 69" class="cls-14" d="M0,0H35a3,3,0,0,1,3,3v7a3,3,0,0,1-3,3H0a0,0,0,0,1,0,0V0A0,0,0,0,1,0,0Z" transform="translate(1258 480)"/>
    <path id="Rectangle_70" data-name="Rectangle 70" class="cls-15" d="M3,0H9A0,0,0,0,1,9,0V13a0,0,0,0,1,0,0H3a3,3,0,0,1-3-3V3A3,3,0,0,1,3,0Z" transform="translate(1250 480)"/>
    <text id="Tidak_ada_data" data-name="Tidak ada data" class="cls-16" transform="translate(1261 488)"><tspan x="0" y="0">Tidak ada data</tspan></text>
    <path id="Polygon_1" data-name="Polygon 1" class="cls-17" d="M2.5,0,5,3H0Z" transform="matrix(0.017, 1, -1, 0.017, 1256.5, 483.97)"/>
  </g>
  <g id="Group_68" data-name="Group 68" transform="translate(-1113.88 -579.065) rotate(8)">
    <path id="Path_48" data-name="Path 48" class="cls-18" d="M0,0H35a3,3,0,0,1,3,3v7c0,1.657-8.079,5.326-9.735,5.326L0,13Z" transform="translate(1258 480)"/>
    <path id="Rectangle_69-2" data-name="Rectangle 69" class="cls-19" d="M0,0H35a3,3,0,0,1,3,3v7a3,3,0,0,1-3,3H0a0,0,0,0,1,0,0V0A0,0,0,0,1,0,0Z" transform="translate(1258 480)"/>
    <path id="Rectangle_70-2" data-name="Rectangle 70" class="cls-20" d="M3,0H9A0,0,0,0,1,9,0V13a0,0,0,0,1,0,0H3a3,3,0,0,1-3-3V3A3,3,0,0,1,3,0Z" transform="translate(1250 480)"/>
    <text id="Tidak_ada_data-2" data-name="Tidak ada data" class="cls-21" transform="translate(1261 488)"><tspan x="0" y="0">Tidak ada data</tspan></text>
    <path id="Polygon_1-2" data-name="Polygon 1" class="cls-22" d="M2.5,0,5,3H0Z" transform="matrix(0.017, 1, -1, 0.017, 1256.5, 483.97)"/>
  </g>
  <g id="Group_69" data-name="Group 69" transform="translate(-1208.977 -413.633)">
    <rect id="Rectangle_71" data-name="Rectangle 71" class="cls-15" width="24" height="4" rx="2" transform="translate(1261 458)"/>
    <line id="Line_1" data-name="Line 1" class="cls-23" x2="30" transform="translate(1257.5 467.5)"/>
    <line id="Line_2" data-name="Line 2" class="cls-23" x2="15" transform="translate(1265.5 471.5)"/>
  </g>
</svg>
