<svg id="icon-transaction-success" xmlns="http://www.w3.org/2000/svg" xmlns:xlink="http://www.w3.org/1999/xlink" width="136.448" height="127.529" viewBox="0 0 136.448 127.529">
  <defs>
    <style>
      .cls-1 {
        fill: #ebedfd;
      }

      .cls-2 {
        fill: #aba0f2;
      }

      .cls-3 {
        fill: #88efb4;
      }

      .cls-4 {
        fill: #f6f7ff;
      }

      .cls-10, .cls-5 {
        fill: #9e90f8;
      }

      .cls-6 {
        clip-path: url(#clip-path);
      }

      .cls-7 {
        fill: #fff;
      }

      .cls-8 {
        fill: #89efb5;
      }

      .cls-15, .cls-16, .cls-17, .cls-9 {
        fill: none;
      }

      .cls-9 {
        stroke: #fff;
        stroke-width: 0.5px;
      }

      .cls-10 {
        stroke: #9e90f8;
        stroke-linejoin: round;
      }

      .cls-10, .cls-15, .cls-16, .cls-17 {
        stroke-linecap: round;
      }

      .cls-11 {
        clip-path: url(#clip-path-2);
      }

      .cls-12 {
        fill: #6eda9c;
      }

      .cls-13 {
        clip-path: url(#clip-path-3);
      }

      .cls-14 {
        fill: #6eeca4;
      }

      .cls-15 {
        stroke: #d9e0ea;
        stroke-width: 6px;
      }

      .cls-16 {
        stroke: #edf0f5;
      }

      .cls-16, .cls-17 {
        stroke-width: 4px;
      }

      .cls-17 {
        stroke: #f1f3f7;
      }

      .cls-18 {
        filter: url(#Path_32);
      }
    </style>
    <clipPath id="clip-path">
      <path id="Path_33" data-name="Path 33" class="cls-1" d="M3994.63,656.1s-20.312-49.006,13.864-65.126,53.52,14.508,53.52,14.508a49.593,49.593,0,0,0,27.727,14.508c17.732,2.9,31.6,24.181,31.6,24.181s14.508,18.7-13.541,50.94c-.323.645-1.429,11.649-5.7,11.782s-73.911,8.367-90.031-16.853S3994.63,656.1,3994.63,656.1Z" transform="translate(-2776 10)"/>
    </clipPath>
    <filter id="Path_32" x="10.361" y="27.881" width="86" height="106" filterUnits="userSpaceOnUse">
      <feOffset dy="-2" input="SourceAlpha"/>
      <feGaussianBlur stdDeviation="3" result="blur"/>
      <feFlood flood-opacity="0.161"/>
      <feComposite operator="in" in2="blur"/>
      <feComposite in="SourceGraphic"/>
    </filter>
    <clipPath id="clip-path-2">
      <path id="Path_35" data-name="Path 35" class="cls-2" d="M1308.988,669.712s-7.338,24.067,5.723,24.067,6.164,4.99,9.539,6.9,4.109,12.18-5.283,15.849-9.979,1.468-9.979,1.468h-11.594l.734-40.943Z"/>
    </clipPath>
    <clipPath id="clip-path-3">
      <path id="Path_15" data-name="Path 15" class="cls-3" d="M3342.918,566.226s8.191,1.635,5.039,6.049,7.146.63,5.465,6.936,2.089,8.551,2.089,8.551-15.391,6.479-17.7-.456-1.095-15.6-1.095-15.6Z" transform="translate(-3336.393 -566.226)"/>
    </clipPath>
  </defs>
  <path id="Path_24" data-name="Path 24" class="cls-1" d="M3994.63,656.1s-20.312-49.006,13.864-65.126,53.52,14.508,53.52,14.508a49.593,49.593,0,0,0,27.727,14.508c17.732,2.9,31.6,24.181,31.6,24.181s14.508,18.7-13.541,50.94c-.323.645-3.587,10.448-6.263,11.3-4.755,0-73.352,8.85-89.472-16.37S3994.63,656.1,3994.63,656.1Z" transform="translate(-3988.639 -581.119)"/>
  <path id="Path_30" data-name="Path 30" class="cls-4" d="M3994.63,656.1s-13.081-26.712,10.578-37.966,51.038,31.1,51.038,31.1,22.152,12.646,39.884,15.548,25.207-20.608,25.207-20.608,14.508,18.7-13.541,50.94a93.468,93.468,0,0,0-5.242,10.6c-4.274.134-74.374,9.544-90.493-15.675S3994.63,656.1,3994.63,656.1Z" transform="translate(-3988.639 -581.119)"/>
  <path id="Path_25" data-name="Path 25" class="cls-5" d="M4083.561,607.1c-4.181-6.189-5.46-10.92,6.5-13.52s12.686,5.75,12.686,5.75,1.354,5.983,11.494,6.73,0,8.32,0,8.32-1.891,2.717-16.763,1.355h0A20.268,20.268,0,0,1,4083.561,607.1Z" transform="translate(-3973.121 784.542) rotate(-19)"/>
  <path id="Path_36" data-name="Path 36" class="cls-2" d="M4083.561,607.1c-4.181-6.189-5.46-10.92,6.5-13.52s8.116,11.155,8.116,11.155-3.281,5.029,6.858,5.776,9.206,3.869,9.206,3.869-1.891,2.717-16.763,1.355h0A20.268,20.268,0,0,1,4083.561,607.1Z" transform="translate(-3973.121 784.542) rotate(-19)"/>
  <g id="Mask_Group_5" data-name="Mask Group 5" class="cls-6" transform="translate(-1212.639 -591.119)">
    <g class="cls-18" transform="matrix(1, 0, 0, 1, 1212.64, 591.12)">
      <path id="Path_32-2" data-name="Path 32" class="cls-7" d="M0,0H68V88H0Z" transform="translate(19.36 38.88)"/>
    </g>
  </g>
  <path id="Path_26" data-name="Path 26" class="cls-8" d="M4008,592.686c-1.964,1.278,13.162-23.806,40.982-3.786,4.68,3.12,6.2,10.169,6.2,10.169s9.1-2.521,6.372,5.462c-.63,2.731-6.372-2.661-6.372-2.661s-.388,16.947-10.921,14.343c-7.456-2.367-3.55-11.682-3.55-11.682s1.893-7.726-3.077-7.016c-.71.118-1.42,14.556-11.953,5.444-3.077-2.959,1.42-8.876,6.036-11.716S4019.528,585.444,4008,592.686Z" transform="translate(-3988.639 -581.119)"/>
  <path id="Path_28" data-name="Path 28" class="cls-9" d="M4034,585.385s5.846,10.615-7.538,17.692" transform="translate(-3988.639 -581.119)"/>
  <path id="Path_31" data-name="Path 31" class="cls-9" d="M1269.21,626.117s13.8-27.515-11-30.515c-12.2-5-25.8,6-25.8,6" transform="translate(-1212.639 -591.119)"/>
  <g id="Group_62" data-name="Group 62" transform="translate(-1212.639 -591.119)">
    <path id="Icon_awesome-thumbs-up" data-name="Icon awesome-thumbs-up" class="cls-5" d="M10.522,22.663H2.428A2.428,2.428,0,0,0,0,25.091V49.372A2.428,2.428,0,0,0,2.428,51.8h8.094a2.428,2.428,0,0,0,2.428-2.428V25.091A2.428,2.428,0,0,0,10.522,22.663ZM6.475,47.753A2.428,2.428,0,1,1,8.9,45.325,2.428,2.428,0,0,1,6.475,47.753ZM38.85,8.241c0,4.291-2.627,6.7-3.367,9.566H45.775A6.045,6.045,0,0,1,51.8,23.684a7.325,7.325,0,0,1-1.967,4.977l-.011.011a8.451,8.451,0,0,1-.942,8.04,8,8,0,0,1-1.657,7.563,5.371,5.371,0,0,1-.622,4.516C44.536,51.758,39.418,51.8,35.09,51.8H34.8c-4.885,0-8.884-1.78-12.1-3.21a15.922,15.922,0,0,0-5.327-1.637,1.214,1.214,0,0,1-1.192-1.214V24.112a1.213,1.213,0,0,1,.36-.862c4.008-3.96,5.731-8.153,9.016-11.444,1.5-1.5,2.042-3.767,2.569-5.959C28.583,3.975,29.524,0,31.566,0,33.994,0,38.85.809,38.85,8.241Z" transform="translate(1282.937 665.401)"/>
    <path id="Path_34" data-name="Path 34" class="cls-10" d="M1299.146,709.247v7.51H1317.8l-.808-9.841Z" transform="translate(0.514)"/>
    <g id="Mask_Group_6" data-name="Mask Group 6" class="cls-11">
      <path id="Icon_awesome-thumbs-up-2" data-name="Icon awesome-thumbs-up" class="cls-2" d="M10.522,22.663H2.428A2.428,2.428,0,0,0,0,25.091V49.372A2.428,2.428,0,0,0,2.428,51.8h8.094a2.428,2.428,0,0,0,2.428-2.428V25.091A2.428,2.428,0,0,0,10.522,22.663ZM6.475,47.753A2.428,2.428,0,1,1,8.9,45.325,2.428,2.428,0,0,1,6.475,47.753ZM38.85,8.241c0,4.291-2.627,6.7-3.367,9.566H45.775A6.045,6.045,0,0,1,51.8,23.684a7.325,7.325,0,0,1-1.967,4.977l-.011.011a8.451,8.451,0,0,1-.942,8.04,8,8,0,0,1-1.657,7.563,5.371,5.371,0,0,1-.622,4.516C44.536,51.758,39.418,51.8,35.09,51.8H34.8c-4.885,0-8.884-1.78-12.1-3.21a15.922,15.922,0,0,0-5.327-1.637,1.214,1.214,0,0,1-1.192-1.214V24.112a1.213,1.213,0,0,1,.36-.862c4.008-3.96,5.731-8.153,9.016-11.444,1.5-1.5,2.042-3.767,2.569-5.959C28.583,3.975,29.524,0,31.566,0,33.994,0,38.85.809,38.85,8.241Z" transform="translate(1282.937 665.401)"/>
    </g>
  </g>
  <g id="Group_55" data-name="Group 55" transform="translate(-276.464 -441.542)">
    <ellipse id="Ellipse_29" data-name="Ellipse 29" class="cls-7" cx="8.394" cy="7.151" rx="8.394" ry="7.151" transform="translate(319.88 541.816)"/>
    <g id="Group_54" data-name="Group 54" transform="translate(316.393 538.226)">
      <path id="Icon_awesome-check-circle" data-name="Icon awesome-check-circle" class="cls-12" d="M22.248,11.405A10.843,10.843,0,1,1,11.405.563,10.843,10.843,0,0,1,22.248,11.405Zm-12.1,5.741L18.2,9.1a.7.7,0,0,0,0-.989l-.989-.992a.7.7,0,0,0-.989,0L9.657,13.684,6.594,10.621a.7.7,0,0,0-.989,0l-.99.989a.7.7,0,0,0,0,.989l4.547,4.547a.7.7,0,0,0,.989,0Z" transform="translate(0.74 -0.353)"/>
      <g id="Mask_Group_1" data-name="Mask Group 1" class="cls-13">
        <path id="Icon_awesome-check-circle-2" data-name="Icon awesome-check-circle" class="cls-14" d="M22.248,11.405A10.843,10.843,0,1,1,11.405.563,10.843,10.843,0,0,1,22.248,11.405Zm-12.1,5.741L18.2,9.1a.7.7,0,0,0,0-.989l-.989-.992a.7.7,0,0,0-.989,0L9.657,13.684,6.594,10.621a.7.7,0,0,0-.989,0l-.99.989a.7.7,0,0,0,0,.989l4.547,4.547a.7.7,0,0,0,.989,0Z" transform="translate(0.74 -0.353)"/>
      </g>
    </g>
  </g>
  <path id="Path_12" data-name="Path 12" class="cls-15" d="M3164.55,538.882h22.672" transform="translate(-3130.691 -483.924)"/>
  <path id="Path_13" data-name="Path 13" class="cls-16" d="M3164.55,538.882h28.709" transform="translate(-3131.691 -475.924)"/>
  <path id="Path_13-2" data-name="Path 13" class="cls-16" d="M3164.55,538.882h32.059" transform="translate(-3131.691 -461.924)"/>
  <path id="Path_14" data-name="Path 14" class="cls-17" d="M3164.55,538.882h26.5" transform="translate(-3131.691 -468.924)"/>
  <path id="Path_14-2" data-name="Path 14" class="cls-17" d="M3164.55,538.882H3194.4" transform="translate(-3131.691 -454.924)"/>
</svg>
