<svg xmlns="http://www.w3.org/2000/svg" xmlns:xlink="http://www.w3.org/1999/xlink" viewBox="0 0 1366 768"><defs><style>.cls-1{isolation:isolate;}.cls-2{fill:none;}.cls-3{opacity:0.52;mix-blend-mode:multiply;}.cls-4{fill:url(#linear-gradient);}</style><linearGradient id="linear-gradient" x1="-1.15" y1="383.58" x2="782.38" y2="383.58" gradientUnits="userSpaceOnUse"><stop offset="0" stop-color="#6c4ea5"/><stop offset="0.22" stop-color="#63469d"/><stop offset="0.5" stop-color="#50368e"/><stop offset="0.67" stop-color="#593d96"/><stop offset="0.94" stop-color="#7150ab"/><stop offset="0.99" stop-color="#7654b0"/></linearGradient></defs><title>Artboard 1</title><g class="cls-1"><g id="Layer_1" data-name="Layer 1"><rect class="cls-2" x="-1" y="-1" width="1367" height="771"/><image class="cls-3" width="839" height="826" transform="translate(-24 -22)" xlink:href="Artboard%2011.png"/><path class="cls-4" d="M700-1c69.4,60.4,79.5,100.6,74,127-9,43.2-63.8,45.6-79,105-7.3,28.4-5.6,69.6,17,94,5.6,6.1,5.3,3.3,17,14,29.7,27.2,48.1,60.3,48.1,60.3h0A31.7,31.7,0,0,1,781,409c15.4,62.5-103.8,109-93,176,7,43.8,61.8,48.5,82,117,7.6,25.7,6.9,49,5,65-241.7-7.3-533.3,7.3-775,0C4,521.7-4,244.3,0-1,212.7-4.3,487.3,2.3,700-1Z"/></g></g></svg>