<svg xmlns="http://www.w3.org/2000/svg" xmlns:xlink="http://www.w3.org/1999/xlink" viewBox="0 0 1366 768"><defs><style>.cls-1,.cls-3{fill:none;}.cls-2{clip-path:url(#clip-path);}.cls-3{stroke:#fff;stroke-miterlimit:10;stroke-width:35px;opacity:0.33;}.cls-4{clip-path:url(#clip-path-2);}.cls-5,.cls-6{opacity:0.49;fill:#fff;font-family:GillSans-UltraBold, Gill Sans Ultra Bold;font-weight:700;}.cls-5{font-size:39.62px;}.cls-6{font-size:10.84px;}.cls-7{opacity:0.31;}</style><clipPath id="clip-path"><rect class="cls-1" x="-0.5" y="-0.5" width="469" height="587"/></clipPath><clipPath id="clip-path-2"><path class="cls-1" d="M776,768c-2.3-15-4.7-30-7-45-8.9-24.8-21.2-39.8-31-49s-16.2-11.8-44-34c-18.3-14.6-16.7-14.4-20-16-31.3-15.3-89.5,8.1-99,42-4.8,17,7.3,26.2,5,56a113.7,113.7,0,0,1-14,46Z"/></clipPath></defs><title>Artboard 1</title><g id="Layer_1" data-name="Layer 1"><rect class="cls-1" x="-1" y="-1" width="1367" height="771"/><g class="cls-2"><circle class="cls-3" cx="69" cy="72" r="119.5"/></g></g><g id="Layer_1_copy_2" data-name="Layer 1 copy 2"><g class="cls-4"><circle class="cls-3" cx="727" cy="749" r="101.5"/></g></g><g id="Layer_1_copy" data-name="Layer 1 copy"><text class="cls-5" transform="translate(660.6 409.9)">+</text><text class="cls-6" transform="translate(69.6 604.7) scale(0.96 1)">+</text><text class="cls-5" transform="translate(49.6 603.9)">+</text><text class="cls-5" transform="translate(15.6 238.9)">+</text><image class="cls-7" width="5000" height="5000" transform="translate(149.1 195.9) scale(0.08)" xlink:href="../../Documents/Bluetooth/logo2.2.png"/></g></svg>